<?xml version="1.0" standalone="no"?><!DOCTYPE svg PUBLIC "-//W3C//DTD SVG 1.1//EN" "http://www.w3.org/Graphics/SVG/1.1/DTD/svg11.dtd"><svg t="1634879084843" class="icon" viewBox="0 0 1024 1024" version="1.1" xmlns="http://www.w3.org/2000/svg" p-id="20274" width="64" height="64" xmlns:xlink="http://www.w3.org/1999/xlink"><defs><style type="text/css"></style></defs><path d="M500.5 917.7C282 917.7 104.2 740 104.2 521.5S282 125.2 500.5 125.2 896.7 303 896.7 521.5 719 917.7 500.5 917.7z m0-750.5c-195.3 0-354.3 158.9-354.3 354.3s158.9 354.3 354.3 354.3 354.3-158.9 354.3-354.3-159-354.3-354.3-354.3z" p-id="20275"></path><path d="M500.3 530.5c-51.6 0-93.5-41.1-93.5-91.8 0-50.7 41.9-91.8 93.5-91.8s93.4 41.1 93.4 91.8c0 50.6-41.8 91.7-93.4 91.8z m-59.1 18.3h118.2c33 0 63.8 16.9 81.5 44.8l18.2 28.7c9.3 14.7 9.9 33.4 1.5 48.6-8.4 15.3-24.4 24.8-41.9 24.8h-237c-17.4 0-33.5-9.5-41.9-24.8-8.4-15.3-7.8-33.9 1.5-48.6l18.3-28.7c17.8-27.9 48.6-44.8 81.6-44.8z m0 0" p-id="20276"></path></svg>