<?xml version="1.0" standalone="no"?>
<!DOCTYPE svg PUBLIC "-//W3C//DTD SVG 20010904//EN"
 "http://www.w3.org/TR/2001/REC-SVG-20010904/DTD/svg10.dtd">
<svg version="1.0" xmlns="http://www.w3.org/2000/svg"
 width="1970.000000pt" height="1970.000000pt" viewBox="0 0 1970.000000 1970.000000"
 preserveAspectRatio="xMidYMid meet">
<metadata>
Created by potrace 1.14, written by Peter Selinger 2001-2017
</metadata>
<g transform="translate(0.000000,1970.000000) scale(0.100000,-0.100000)"
fill="#000000" stroke="none">
<path d="M7680 17212 c-984 -647 -2336 -1555 -2451 -1646 -14 -12 -36 -28 -48
-36 -13 -8 -109 -78 -214 -154 -106 -76 -271 -196 -367 -266 -426 -308 -765
-554 -770 -559 -3 -3 -52 -42 -110 -85 -104 -79 -357 -276 -395 -308 -11 -9
-88 -72 -171 -140 -167 -136 -214 -176 -354 -298 -281 -245 -545 -494 -795
-750 -122 -125 -139 -144 -254 -269 -42 -46 -81 -89 -86 -95 -25 -26 -275
-327 -301 -362 -16 -22 -32 -41 -35 -44 -3 -3 -48 -61 -98 -130 -190 -257
-368 -566 -503 -870 -55 -123 -190 -495 -203 -560 -2 -8 -13 -49 -25 -90 -20
-70 -65 -255 -75 -307 -2 -13 -6 -31 -9 -41 -3 -9 -7 -34 -10 -54 -3 -21 -10
-57 -15 -80 -5 -24 -13 -68 -16 -98 -4 -30 -8 -57 -10 -60 -1 -3 -6 -32 -9
-65 -4 -33 -8 -71 -11 -85 -6 -39 -14 -109 -20 -185 -3 -38 -8 -88 -10 -111
-22 -224 -22 -809 0 -1034 1 -19 6 -75 10 -124 4 -50 8 -97 10 -105 2 -9 6
-45 9 -81 4 -36 9 -76 11 -90 2 -14 7 -45 10 -70 3 -25 10 -67 15 -95 5 -27
12 -68 15 -90 3 -22 7 -47 10 -55 2 -8 6 -32 9 -53 4 -21 15 -79 27 -130 11
-51 22 -101 24 -112 5 -20 18 -75 20 -85 1 -3 5 -18 9 -35 90 -346 212 -697
340 -984 187 -414 372 -739 643 -1126 58 -83 262 -346 283 -365 3 -3 18 -21
34 -40 100 -122 457 -492 566 -585 90 -77 185 -161 190 -166 4 -5 55 -45 249
-197 18 -15 41 -31 50 -36 9 -5 18 -12 21 -16 16 -22 354 -247 509 -339 197
-118 535 -293 716 -372 322 -140 740 -289 964 -345 9 -2 97 -24 196 -49 99
-25 189 -47 200 -49 11 -2 67 -13 125 -25 58 -11 119 -23 135 -26 17 -3 42 -7
58 -10 82 -15 148 -25 197 -30 30 -3 66 -8 80 -10 45 -8 256 -31 380 -40 333
-26 1030 -26 1192 0 13 2 60 6 105 10 45 3 90 7 100 9 10 2 45 7 78 10 33 4
71 9 85 11 14 2 45 7 70 10 38 5 115 18 315 51 17 3 46 9 65 14 19 5 51 12 70
15 70 11 408 97 540 136 217 65 602 199 685 239 11 5 85 37 165 71 176 74 408
186 590 284 137 73 153 83 270 150 36 21 74 43 85 49 49 28 134 80 175 106 25
16 59 37 75 46 51 29 364 238 490 328 66 47 128 91 138 98 139 97 615 478 698
557 9 9 29 27 45 40 207 172 678 638 945 936 25 28 58 64 72 80 15 17 53 60
85 97 l57 68 20 -23 c30 -34 68 -81 261 -322 96 -121 183 -229 192 -240 9 -11
53 -65 97 -120 90 -113 106 -132 120 -149 6 -6 26 -31 45 -56 19 -25 58 -74
88 -110 29 -36 59 -72 66 -81 7 -8 104 -130 216 -270 112 -139 212 -263 221
-274 10 -11 37 -45 61 -75 100 -126 413 -515 418 -520 3 -3 86 -106 184 -230
99 -124 182 -227 185 -230 3 -3 22 -25 41 -50 19 -25 42 -53 50 -63 34 -42 47
-58 85 -106 31 -40 46 -51 70 -52 103 -3 3355 -3 3355 0 0 5 -42 57 -240 302
-96 119 -188 234 -205 255 -16 21 -65 81 -108 133 -100 123 -73 90 -291 361
-104 129 -203 251 -220 271 -17 20 -53 65 -81 100 -27 35 -52 66 -55 69 -5 4
-190 233 -901 1114 -79 98 -187 231 -239 295 -52 65 -108 134 -125 155 -16 22
-43 55 -60 76 -45 55 -238 292 -325 400 -187 232 -308 382 -335 415 -140 170
-745 921 -745 925 0 5 36 48 145 175 130 151 320 374 550 645 143 168 270 316
281 330 12 14 79 93 149 175 128 150 204 239 238 279 11 11 35 41 55 65 21 24
42 49 47 55 6 6 35 41 65 76 30 36 57 67 60 70 3 3 28 32 55 65 50 60 91 108
110 129 6 6 87 101 180 211 213 250 213 251 255 299 19 23 60 70 90 106 30 36
65 76 77 90 12 14 31 36 43 50 11 14 38 45 59 70 47 55 226 267 249 295 33 40
187 220 192 225 3 3 57 66 120 140 63 74 129 151 146 170 17 19 104 121 194
225 89 105 172 201 184 215 12 14 75 88 141 165 66 77 124 145 130 151 25 27
101 118 108 130 7 12 -242 14 -1641 14 l-1649 0 -110 -127 c-60 -71 -185 -216
-278 -323 -93 -107 -249 -289 -348 -405 -99 -115 -185 -215 -191 -220 -6 -6
-36 -39 -66 -75 -30 -36 -59 -70 -65 -76 -5 -6 -30 -35 -55 -64 -25 -29 -49
-58 -55 -64 -12 -13 -61 -69 -131 -151 -444 -515 -834 -968 -894 -1038 -41
-48 -77 -87 -80 -86 -3 0 -34 37 -70 81 -36 44 -73 90 -83 102 -10 11 -26 30
-35 41 -9 11 -35 43 -57 70 -22 28 -42 52 -45 55 -3 3 -91 109 -195 235 -104
127 -352 426 -550 666 -198 239 -376 455 -395 479 -19 24 -40 48 -45 54 -6 6
-96 115 -200 241 -104 127 -224 273 -268 325 -43 52 -86 104 -95 115 -9 11
-48 58 -87 105 -39 47 -125 150 -190 230 -66 80 -128 154 -137 165 -9 11 -108
130 -219 265 -111 135 -211 256 -223 270 -11 14 -39 47 -61 75 -22 27 -52 63
-66 80 -27 30 -128 152 -372 450 -72 88 -134 162 -137 165 -5 4 -71 85 -110
133 -8 11 -20 24 -25 31 -6 6 -30 36 -55 66 -25 30 -53 64 -62 75 -233 279
-984 1193 -1338 1628 -58 71 -128 157 -155 191 -142 173 -501 613 -512 626
-181 224 -309 379 -322 392 -15 15 -18 15 -41 0z m-534 -3454 c10 -13 48 -59
84 -103 36 -44 75 -91 86 -105 18 -21 393 -479 452 -552 9 -12 31 -37 48 -57
38 -45 1050 -1281 1084 -1325 34 -43 286 -352 324 -397 17 -20 38 -44 46 -55
16 -20 276 -337 335 -409 100 -122 374 -458 400 -491 17 -20 35 -42 40 -48 6
-6 60 -72 120 -146 60 -74 120 -146 131 -160 12 -14 86 -103 164 -199 78 -96
159 -195 180 -220 38 -46 243 -298 310 -381 19 -24 40 -48 45 -54 8 -8 215
-262 332 -406 14 -18 177 -216 201 -245 10 -11 78 -94 152 -185 73 -91 137
-167 140 -170 3 -3 21 -25 40 -50 19 -25 37 -47 40 -50 3 -3 25 -29 49 -58
l43 -53 -139 -137 c-216 -212 -465 -448 -637 -605 -49 -45 -97 -89 -106 -97
-34 -31 -233 -208 -272 -242 -13 -10 -47 -40 -77 -66 -89 -77 -375 -315 -411
-342 -18 -14 -38 -30 -44 -36 -22 -20 -343 -268 -419 -323 -43 -31 -97 -70
-120 -86 -243 -175 -627 -425 -627 -408 0 3 -8 -1 -17 -9 -27 -24 -279 -148
-441 -217 -168 -72 -453 -169 -607 -206 -60 -15 -119 -29 -130 -32 -32 -8
-217 -44 -250 -48 -16 -3 -77 -11 -135 -20 -182 -26 -352 -38 -570 -39 -151 0
-358 9 -420 18 -14 2 -47 7 -75 11 -67 9 -113 16 -139 21 -11 2 -37 7 -56 10
-139 22 -404 97 -610 173 -93 35 -95 35 -193 80 -37 17 -70 31 -73 31 -6 0
-269 132 -314 157 -320 184 -537 336 -814 571 -44 39 -365 360 -406 407 -177
206 -290 358 -422 570 -121 194 -256 462 -346 690 -76 193 -161 481 -191 650
-6 33 -13 70 -15 81 -9 46 -18 107 -31 219 -23 196 -23 584 0 715 2 14 9 59
14 100 12 86 16 107 37 199 8 36 17 77 20 91 10 51 56 199 95 305 40 109 185
413 234 490 13 22 28 47 32 55 18 40 178 265 257 364 117 145 153 184 386 416
321 320 457 441 975 868 41 34 159 128 186 147 15 11 65 49 111 85 137 107
462 347 633 467 88 61 165 116 170 120 11 8 45 32 272 186 78 53 180 125 227
159 182 134 567 397 582 397 6 1 19 -9 30 -21z"/>
</g>
</svg>
