<?xml version="1.0" standalone="no"?>
<!DOCTYPE svg PUBLIC "-//W3C//DTD SVG 20010904//EN"
 "http://www.w3.org/TR/2001/REC-SVG-20010904/DTD/svg10.dtd">
<svg version="1.0" xmlns="http://www.w3.org/2000/svg"
 width="4054.000000pt" height="4054.000000pt" viewBox="0 0 4054.000000 4054.000000"
 preserveAspectRatio="xMidYMid meet">
<metadata>
Created by potrace 1.14, written by Peter Selinger 2001-2017
</metadata>
<g transform="translate(0.000000,4054.000000) scale(0.100000,-0.100000)"
fill="#000000" stroke="none">
<path d="M30449 32238 c-6 -18 -13 -35 -14 -38 -1 -3 -7 -18 -14 -35 -17 -42
-45 -114 -156 -395 -53 -135 -129 -326 -168 -425 -39 -99 -72 -182 -72 -185
-2 -7 -14 -35 -42 -99 -12 -29 -23 -59 -23 -65 0 -6 -6 -22 -13 -36 -20 -39
-52 -124 -49 -132 1 -5 -3 -8 -8 -8 -5 0 -10 -6 -10 -14 0 -8 -33 -96 -73
-197 -81 -201 -160 -402 -262 -664 -36 -93 -70 -179 -75 -190 -5 -11 -57 -141
-116 -290 -58 -148 -111 -283 -118 -300 -8 -16 -22 -52 -32 -80 -10 -27 -24
-61 -31 -75 -7 -14 -13 -31 -13 -38 0 -7 -4 -20 -10 -30 -5 -9 -58 -138 -116
-287 -148 -377 -195 -495 -209 -530 -7 -16 -45 -111 -83 -210 -39 -99 -76
-193 -83 -210 -7 -16 -13 -34 -15 -40 -1 -5 -10 -28 -20 -50 -10 -22 -18 -42
-19 -45 0 -3 -41 -106 -90 -230 -49 -124 -90 -227 -90 -230 -1 -3 -9 -23 -19
-45 -10 -22 -19 -47 -21 -56 -2 -9 -8 -25 -13 -35 -6 -11 -29 -68 -53 -129
-23 -60 -48 -123 -55 -140 -7 -16 -38 -95 -69 -175 -30 -80 -60 -154 -65 -165
-11 -23 -130 -325 -134 -340 -2 -5 -7 -19 -11 -30 -31 -74 -107 -262 -109
-270 -2 -5 -8 -23 -15 -40 -7 -16 -30 -77 -53 -135 -22 -58 -47 -118 -55 -133
-8 -16 -16 -36 -18 -45 -2 -10 -7 -26 -11 -37 -11 -30 -2 -19 66 83 63 94 199
242 300 324 169 138 389 244 623 298 117 28 176 34 342 34 146 1 193 -4 310
-30 39 -8 75 -16 82 -18 7 -1 16 -5 19 -9 4 -4 14 -7 23 -7 40 0 256 -97 362
-163 170 -105 363 -296 466 -462 72 -116 118 -216 183 -400 17 -49 35 -99 40
-110 4 -11 18 -47 30 -80 12 -33 26 -69 30 -80 16 -40 72 -186 165 -435 52
-140 98 -262 102 -270 3 -8 7 -19 9 -25 6 -22 196 -522 209 -552 8 -17 15 -33
15 -36 0 -3 5 -18 12 -34 6 -15 12 -32 13 -38 2 -5 19 -53 39 -105 21 -52 53
-138 72 -190 19 -52 39 -104 44 -115 11 -24 77 -203 97 -260 7 -22 18 -49 23
-60 11 -24 131 -340 166 -440 14 -38 29 -79 34 -90 14 -35 35 -90 35 -95 0 -3
3 -10 7 -16 4 -5 13 -28 21 -50 70 -193 100 -271 111 -298 8 -17 39 -98 70
-181 30 -82 60 -163 67 -180 7 -16 13 -34 15 -40 2 -10 78 -212 94 -250 16
-39 69 -181 100 -265 17 -47 35 -94 40 -105 9 -20 141 -371 186 -495 13 -36
28 -74 33 -85 5 -11 18 -46 30 -77 26 -72 57 -153 72 -193 7 -16 13 -34 15
-40 1 -5 16 -46 33 -90 18 -44 48 -123 67 -175 19 -52 46 -122 60 -155 13 -33
24 -64 24 -70 0 -5 6 -21 13 -35 7 -14 23 -54 36 -90 12 -36 26 -74 31 -85 4
-11 22 -56 38 -100 17 -44 42 -109 55 -145 60 -156 139 -366 141 -375 1 -5 5
-16 9 -22 4 -7 16 -36 26 -65 26 -77 120 -327 138 -367 8 -18 16 -39 17 -45 2
-14 43 -124 56 -151 5 -11 23 -58 40 -105 17 -47 42 -112 55 -145 13 -33 47
-123 75 -200 29 -77 63 -169 77 -205 14 -36 31 -81 38 -100 7 -19 25 -64 39
-100 14 -36 53 -139 86 -230 56 -149 100 -263 235 -605 60 -152 110 -280 161
-415 25 -63 49 -124 53 -135 5 -11 36 -90 70 -175 33 -85 84 -218 114 -295 30
-77 94 -241 141 -365 48 -124 91 -234 96 -245 8 -17 63 -157 165 -420 13 -33
47 -121 76 -195 30 -74 54 -137 55 -140 0 -3 5 -16 11 -30 41 -98 63 -155 63
-167 0 -7 4 -13 10 -13 5 0 9 -3 8 -7 -1 -5 8 -35 21 -68 35 -94 141 -367 153
-395 6 -14 15 -35 19 -47 5 -13 13 -33 19 -45 36 -85 130 -334 130 -345 0 -7
5 -13 10 -13 6 0 10 -7 10 -16 0 -8 9 -39 21 -67 12 -29 25 -62 30 -74 5 -13
13 -33 18 -45 5 -13 30 -75 55 -138 142 -364 237 -607 245 -625 5 -11 32 -81
61 -155 28 -74 55 -144 60 -155 5 -11 39 -96 75 -190 73 -188 132 -339 145
-370 4 -11 18 -45 30 -75 11 -30 25 -64 30 -75 10 -24 23 -58 24 -65 4 -17
110 -280 122 -302 8 -15 15 -31 14 -35 -1 -9 146 -389 161 -416 5 -9 16 -39
25 -65 9 -26 22 -62 30 -79 36 -84 42 -100 49 -123 4 -14 16 -43 25 -65 10
-22 46 -112 80 -200 34 -88 95 -243 135 -345 40 -102 94 -239 120 -305 25 -66
60 -155 77 -197 l30 -77 1511 0 c831 0 1514 2 1519 5 4 3 3 13 -2 22 -5 9 -50
123 -100 252 -51 129 -98 249 -105 265 -8 17 -44 107 -80 200 -36 94 -70 179
-74 190 -12 27 -96 239 -97 245 -1 6 -12 33 -34 85 -10 22 -36 90 -59 150 -23
61 -46 119 -51 130 -5 11 -23 56 -40 100 -17 44 -35 89 -39 100 -5 11 -19 45
-31 75 -11 30 -25 64 -30 75 -4 11 -54 137 -110 280 -56 143 -106 269 -110
280 -23 51 -58 142 -65 165 -4 14 -16 43 -26 65 -17 39 -159 397 -261 660 -28
72 -56 144 -63 160 -29 67 -67 161 -70 175 -3 12 -82 210 -128 320 -5 14 -11
31 -13 38 -1 7 -11 32 -22 55 -11 23 -23 53 -27 67 -4 14 -18 49 -31 78 -13
29 -24 56 -24 60 0 6 -35 96 -70 177 -4 11 -33 83 -63 160 -31 77 -61 154 -68
170 -7 17 -13 33 -14 38 -2 4 -4 9 -5 12 -1 3 -3 8 -5 13 -3 11 -16 44 -30 77
-7 17 -30 73 -50 125 -20 52 -44 113 -54 135 -10 22 -22 51 -26 65 -7 23 -85
221 -104 265 -5 11 -51 126 -101 255 -91 234 -101 260 -120 303 -5 12 -23 58
-40 102 -17 44 -35 90 -40 103 -14 32 -25 58 -55 137 -15 39 -32 81 -38 95 -5
14 -11 30 -13 35 -3 12 -121 308 -139 350 -7 17 -25 62 -39 100 -15 39 -31 80
-36 93 -20 45 -22 50 -217 547 -30 77 -60 154 -67 170 -18 43 -61 149 -62 155
0 3 -6 19 -13 35 -7 17 -24 59 -38 95 -13 36 -31 79 -38 95 -7 17 -29 71 -48
120 -114 290 -249 633 -256 650 -10 22 -23 55 -27 70 -2 8 -189 478 -219 550
-5 11 -9 22 -10 25 -10 28 -19 49 -31 72 -8 15 -14 29 -12 30 2 2 -9 32 -24
68 -15 36 -52 130 -83 210 -31 80 -63 159 -70 175 -7 17 -41 102 -75 190 -34
88 -68 174 -76 192 -8 17 -14 34 -14 38 0 3 -8 25 -18 48 -24 54 -44 105 -77
192 -15 39 -33 84 -40 100 -7 17 -54 136 -105 265 -50 129 -100 254 -111 277
-10 24 -19 47 -19 53 0 6 -4 18 -9 28 -5 9 -31 71 -57 137 -26 66 -55 139 -65
162 -11 23 -19 44 -19 47 0 6 -119 312 -145 371 -7 17 -25 64 -40 105 -15 41
-31 80 -35 85 -4 6 -13 27 -20 48 -7 22 -18 51 -26 65 -8 15 -14 30 -14 34 0
7 -195 504 -225 573 -7 17 -25 62 -39 100 -15 39 -31 79 -36 90 -13 29 -131
328 -134 340 -2 6 -8 21 -13 35 -52 125 -65 156 -67 165 -2 6 -8 21 -14 35 -5
14 -27 68 -47 120 -20 52 -42 109 -49 125 -30 69 -78 194 -75 197 1 2 -4 14
-11 28 -8 14 -14 27 -15 30 0 3 -8 24 -17 45 -9 22 -47 117 -83 210 -37 94
-73 184 -80 200 -7 17 -29 71 -48 120 -129 328 -261 665 -272 690 -7 17 -39
95 -70 175 -31 80 -60 154 -65 165 -5 11 -59 148 -120 305 -61 157 -116 294
-120 305 -18 39 -280 706 -280 712 0 3 -7 19 -15 36 -8 18 -78 194 -155 392
-78 198 -145 369 -150 380 -4 11 -15 36 -23 55 -8 19 -72 181 -141 360 -70
179 -131 334 -136 345 -5 11 -18 43 -29 70 -10 28 -36 93 -56 145 -21 52 -43
109 -50 125 -7 17 -45 113 -85 215 -39 102 -78 199 -85 215 -13 28 -58 144
-60 155 -1 3 -6 16 -12 30 -6 14 -21 50 -32 80 -12 30 -26 64 -31 75 -8 19
-109 276 -202 515 -23 58 -47 119 -54 135 -12 30 -72 181 -191 485 -35 91 -68
174 -73 185 -9 18 -86 215 -247 625 -35 91 -69 174 -73 185 -5 11 -23 56 -40
100 -17 44 -35 89 -40 100 -8 19 -68 170 -167 425 -24 63 -48 124 -53 135 -5
11 -73 182 -151 380 -77 198 -150 379 -160 402 -10 24 -19 49 -19 56 0 7 -6
21 -14 32 -7 11 -13 22 -13 25 3 11 -67 170 -74 170 -4 0 -13 -15 -20 -32z"/>
<path d="M585 31447 c4 -12 49 -128 100 -258 52 -129 123 -311 160 -405 36
-93 74 -189 85 -214 10 -25 60 -151 110 -280 51 -129 98 -248 105 -265 7 -16
24 -59 38 -95 14 -36 60 -153 102 -260 89 -226 195 -497 232 -590 14 -36 31
-78 38 -95 8 -16 19 -47 26 -67 l13 -37 1893 3 c1041 1 1895 1 1897 -1 2 -2
318 -6 702 -8 385 -2 737 -6 784 -9 267 -13 626 -35 675 -41 17 -2 66 -7 110
-10 44 -4 96 -9 115 -11 19 -2 60 -6 90 -9 127 -12 156 -15 180 -19 14 -2 54
-7 90 -11 36 -4 76 -8 90 -10 14 -2 48 -6 75 -9 28 -3 59 -8 70 -10 11 -2 40
-7 65 -10 36 -5 272 -44 375 -62 28 -4 67 -13 150 -30 38 -9 99 -22 135 -30
36 -8 72 -17 80 -20 8 -3 26 -8 40 -10 14 -3 43 -10 65 -16 22 -6 45 -13 50
-14 100 -26 374 -109 410 -124 30 -12 59 -23 70 -25 6 -2 42 -15 80 -30 39
-14 90 -33 115 -42 25 -8 73 -28 108 -44 34 -16 66 -29 70 -29 5 0 32 -11 60
-25 29 -14 54 -25 57 -25 13 0 330 -162 410 -210 89 -52 315 -202 338 -223 6
-7 30 -25 52 -42 62 -46 95 -74 192 -162 69 -62 210 -203 250 -249 10 -12 41
-47 68 -79 215 -249 421 -582 539 -872 73 -179 165 -474 191 -613 1 -8 5 -31
9 -50 3 -19 8 -46 11 -60 7 -33 25 -147 31 -187 11 -86 14 -111 19 -154 3 -25
7 -72 10 -105 2 -32 7 -95 11 -139 13 -159 7 -690 -11 -825 -2 -19 -7 -64 -10
-100 -8 -90 -13 -138 -19 -174 -3 -17 -8 -53 -12 -81 -3 -27 -8 -59 -10 -70
-3 -11 -7 -33 -9 -50 -6 -37 -16 -87 -30 -150 -45 -199 -42 -187 -102 -380
-24 -80 -54 -162 -79 -222 -8 -17 -14 -34 -14 -37 0 -7 -72 -163 -107 -231
-88 -173 -178 -313 -321 -503 -100 -132 -137 -174 -282 -321 -151 -152 -212
-206 -385 -339 -188 -144 -542 -340 -835 -462 -69 -29 -131 -57 -138 -62 -6
-6 -12 -8 -12 -4 0 4 -14 -1 -32 -10 -17 -9 -43 -20 -57 -24 -14 -5 -84 -29
-156 -55 -71 -26 -137 -48 -145 -50 -8 -2 -44 -13 -80 -25 -36 -12 -69 -23
-75 -24 -5 -2 -30 -8 -55 -15 -25 -8 -49 -14 -55 -16 -5 -1 -17 -5 -25 -8 -25
-10 -341 -86 -425 -103 -11 -2 -42 -8 -70 -14 -85 -17 -109 -21 -145 -25 -19
-3 -46 -8 -60 -11 -34 -8 -104 -19 -190 -30 -14 -2 -38 -5 -55 -8 -104 -17
-186 -27 -310 -41 -27 -3 -63 -8 -80 -10 -16 -3 -57 -7 -90 -10 -33 -2 -80 -7
-105 -10 -25 -3 -74 -7 -110 -10 -36 -3 -92 -7 -125 -10 -33 -2 -98 -7 -145
-10 -47 -3 -116 -7 -153 -10 -79 -7 -242 -14 -512 -22 -104 -3 -569 -6 -1032
-6 -464 -1 -843 -4 -843 -7 0 -5 22 -38 149 -221 24 -35 97 -140 161 -234 64
-93 141 -205 171 -248 30 -44 59 -86 64 -95 6 -9 13 -21 18 -26 22 -32 152
-220 217 -316 122 -179 248 -364 257 -375 4 -5 40 -57 79 -115 126 -185 464
-676 613 -889 40 -59 88 -128 107 -156 18 -27 220 -318 448 -645 228 -327 495
-710 592 -850 98 -140 195 -280 217 -310 40 -57 670 -963 785 -1130 36 -52 79
-113 95 -135 15 -22 64 -92 107 -155 44 -63 83 -119 88 -125 4 -5 48 -68 97
-140 49 -71 101 -146 117 -166 15 -20 28 -40 28 -43 0 -3 19 -32 43 -63 24
-32 72 -101 108 -153 35 -52 67 -99 72 -105 34 -42 97 -136 97 -144 0 -5 4
-11 8 -13 7 -3 117 -160 469 -668 108 -155 137 -197 211 -302 26 -37 83 -119
127 -184 44 -64 85 -122 90 -128 6 -6 45 -63 88 -126 43 -63 97 -142 121 -175
23 -33 62 -89 87 -125 25 -36 119 -171 209 -300 90 -129 189 -271 219 -315 31
-44 89 -128 129 -185 112 -161 428 -615 490 -705 31 -44 70 -101 89 -128 39
-56 80 -114 155 -222 251 -361 300 -432 311 -445 7 -9 33 -47 59 -85 26 -39
66 -97 89 -130 23 -33 103 -148 177 -255 273 -392 331 -475 339 -485 4 -5 21
-30 38 -55 16 -25 58 -84 92 -132 35 -48 63 -92 63 -97 0 -5 4 -11 8 -13 5 -1
25 -27 45 -57 21 -29 37 -48 37 -42 0 7 8 8 25 1 16 -6 25 -6 25 0 0 12 22 9
32 -5 5 -6 8 -4 8 5 0 13 1 13 10 0 5 -8 10 -10 10 -5 0 14 52 16 68 3 6 -6
12 -6 12 -1 0 5 9 9 20 10 11 1 18 -2 15 -8 -4 -5 5 -5 20 1 33 13 38 13 30 0
-3 -5 -1 -10 4 -10 6 0 11 5 11 11 0 8 6 7 17 -2 11 -10 14 -10 9 -1 -9 15 -5
15 28 2 17 -6 26 -6 26 0 0 12 22 9 32 -5 5 -6 8 -4 8 5 0 13 1 13 10 0 5 -8
10 -10 10 -5 0 14 52 16 68 3 6 -6 12 -6 12 -1 0 5 9 9 20 10 11 1 18 -2 15
-8 -4 -5 5 -5 20 1 33 13 38 13 30 0 -3 -5 -1 -10 4 -10 6 0 11 5 11 11 0 8 6
7 17 -2 9 -8 14 -9 11 -4 -7 12 81 14 100 2 6 -5 12 -4 12 0 0 5 9 9 20 10 11
1 18 -2 15 -8 -4 -5 5 -5 20 1 33 13 38 13 30 0 -3 -5 -1 -10 4 -10 6 0 11 4
11 10 0 12 22 9 32 -5 5 -6 8 -4 8 5 0 13 1 13 10 0 5 -8 10 -10 10 -5 0 14
52 16 68 3 6 -6 12 -6 12 -1 0 5 9 9 20 10 11 1 18 -2 15 -8 -4 -5 5 -5 20 1
33 13 38 13 30 0 -3 -6 -1 -10 4 -10 6 0 11 4 11 10 0 12 22 9 32 -5 5 -6 8
-4 8 5 0 13 1 13 10 0 5 -8 10 -10 10 -5 0 14 52 16 68 3 6 -6 12 -6 12 -1 0
5 9 9 20 10 11 1 18 -2 15 -7 -3 -5 8 -4 25 1 23 8 34 8 45 -1 9 -7 15 -8 15
-2 0 6 13 7 35 2 19 -4 33 -5 30 -1 -2 4 9 8 25 8 18 0 27 -4 23 -11 -4 -6 0
-5 8 1 12 10 18 10 27 1 8 -8 12 -9 12 -1 0 7 11 8 35 3 19 -4 33 -5 30 -1 -2
4 9 8 25 8 16 0 27 -4 24 -8 -2 -5 9 -3 26 2 23 8 34 8 45 -1 8 -7 15 -8 15
-3 0 5 9 9 20 10 11 1 18 -2 15 -8 -4 -5 5 -5 20 1 33 13 38 13 30 0 -3 -5 -1
-10 4 -10 6 0 11 5 11 10 0 12 22 9 32 -5 5 -6 8 -4 8 5 0 13 1 13 10 0 5 -8
10 -10 10 -5 0 14 52 16 68 3 6 -6 12 -6 12 -1 0 5 9 9 20 10 11 1 18 -2 15
-8 -4 -5 5 -5 20 1 33 13 38 13 30 0 -3 -6 -1 -10 4 -10 6 0 11 5 11 10 0 12
22 9 32 -5 5 -6 8 -4 8 5 0 13 1 13 10 0 5 -8 10 -10 10 -5 0 14 52 16 68 3 6
-6 12 -6 12 -1 0 5 9 9 20 10 11 1 18 -2 15 -7 -3 -5 8 -4 25 1 23 8 34 8 45
-1 9 -7 15 -8 15 -2 0 6 13 7 35 2 19 -4 33 -5 30 -1 -2 4 9 8 25 8 18 0 27
-4 23 -11 -4 -6 0 -5 8 1 12 10 18 10 27 1 8 -8 12 -9 12 -1 0 7 11 8 35 3 19
-4 33 -5 30 -1 -2 4 9 8 25 8 16 0 27 -4 24 -8 -2 -5 9 -3 26 2 23 8 34 8 45
-1 8 -7 15 -8 15 -3 0 5 9 9 20 10 11 1 18 -2 15 -8 -4 -5 5 -5 20 1 33 13 38
13 30 0 -3 -5 -1 -10 4 -10 6 0 11 5 11 10 0 12 22 9 32 -5 5 -6 8 -4 8 5 0
13 1 13 10 0 5 -8 10 -10 10 -5 0 14 52 16 68 3 6 -6 12 -6 12 -1 0 5 9 9 20
10 11 1 18 -2 15 -8 -4 -5 5 -5 20 1 33 13 38 13 30 0 -3 -5 -1 -10 4 -10 6 0
11 5 11 10 0 12 22 9 32 -5 5 -6 8 -4 8 5 0 13 1 13 10 0 5 -8 10 -10 10 -5 0
14 52 16 68 3 6 -6 12 -6 12 -1 0 5 9 9 20 10 11 1 18 -2 15 -8 -4 -5 5 -5 20
1 33 13 38 13 30 0 -3 -5 -1 -10 4 -10 6 0 11 5 11 10 0 12 22 9 32 -5 5 -6 8
-4 8 5 0 13 1 13 10 0 5 -8 10 -10 10 -5 0 14 52 16 68 3 6 -6 12 -6 12 -1 0
5 9 9 20 10 11 1 18 -2 15 -8 -4 -5 5 -5 20 1 33 13 38 13 30 0 -3 -6 -1 -10
4 -10 6 0 11 6 11 13 0 9 -487 691 -537 752 -5 6 -62 84 -127 175 -66 91 -136
188 -156 215 -21 28 -168 230 -327 450 -159 220 -329 454 -377 520 -48 66 -94
129 -102 140 -8 11 -73 101 -145 200 -71 99 -136 188 -144 197 -7 9 -22 29
-32 45 -10 15 -40 58 -68 95 -27 36 -79 108 -115 158 -36 50 -71 99 -78 108
-7 9 -30 42 -52 72 -22 30 -43 60 -47 65 -21 26 -639 878 -648 893 -5 9 -12
19 -16 22 -3 3 -130 178 -284 390 -153 212 -322 446 -377 520 -54 74 -142 197
-197 272 -54 75 -107 148 -117 161 -11 14 -26 35 -34 47 -8 12 -29 41 -46 64
-17 22 -181 248 -364 501 -183 253 -363 501 -399 550 -37 50 -75 103 -86 119
-29 42 -237 329 -389 537 -23 30 -49 66 -58 80 -49 67 -98 135 -105 144 -5 6
-73 100 -153 210 -79 110 -146 202 -149 205 -3 3 -10 13 -16 22 -8 14 -339
470 -510 703 -28 39 -69 95 -90 125 -22 30 -42 57 -45 60 -3 3 -25 34 -49 70
-25 36 -48 67 -51 70 -3 3 -32 41 -63 85 -74 103 -153 213 -177 245 -10 14
-64 88 -120 165 -228 316 -334 463 -355 488 -8 9 -15 19 -15 22 0 3 -20 31
-45 64 -25 32 -45 61 -45 63 0 2 8 4 18 4 19 1 120 13 148 18 11 2 39 7 64 10
25 3 56 8 70 11 14 3 40 7 59 10 18 2 41 7 50 9 9 3 32 7 51 10 19 3 46 8 60
11 14 3 39 8 55 11 17 3 50 10 75 15 25 6 53 12 63 14 10 2 27 7 37 10 10 3
28 8 39 10 79 18 158 37 221 56 144 41 247 72 285 84 146 49 371 132 420 155
11 5 48 21 83 35 123 50 379 174 507 245 141 78 220 125 223 132 2 4 8 8 13 8
10 0 170 99 179 111 3 3 16 12 30 19 34 18 379 268 400 290 3 3 46 39 95 80
193 160 438 394 597 571 37 41 81 90 99 109 17 19 59 69 92 110 34 41 64 77
67 80 23 21 232 300 321 430 80 115 239 366 239 376 0 4 6 15 14 23 7 9 27 41
43 71 17 30 40 73 53 95 104 183 252 506 357 780 90 233 222 668 249 815 3 14
9 39 14 55 4 17 12 48 16 70 4 22 8 45 9 50 2 6 5 24 8 40 3 17 12 66 21 110
28 152 43 243 51 320 3 28 8 61 10 75 3 14 7 54 11 90 3 36 8 79 10 95 3 30
10 118 19 230 7 104 18 435 18 555 0 157 -15 483 -27 590 -3 25 -7 74 -10 110
-4 36 -8 76 -10 90 -3 14 -7 48 -11 75 -3 28 -8 59 -10 70 -3 11 -7 43 -11 70
-8 67 -13 100 -19 133 -3 15 -12 63 -20 106 -8 43 -17 86 -19 95 -3 9 -8 32
-11 51 -3 19 -15 71 -26 115 -12 44 -23 88 -25 98 -2 9 -6 26 -9 37 -3 11 -7
30 -10 41 -25 115 -156 520 -225 694 -29 74 -46 117 -67 163 -13 29 -23 55
-23 57 0 18 -254 549 -270 565 -3 3 -12 18 -20 35 -31 61 -198 344 -264 445
-167 256 -357 506 -564 740 -74 83 -358 369 -437 440 -92 81 -266 226 -325
270 -18 14 -56 43 -85 65 -28 22 -58 45 -67 50 -9 6 -60 41 -113 78 -95 67
-361 237 -371 237 -2 0 -21 11 -42 24 -108 68 -454 241 -667 333 -288 125
-689 267 -925 327 -14 4 -74 20 -135 36 -60 16 -121 31 -135 34 -14 3 -43 10
-65 15 -22 5 -53 12 -70 15 -16 3 -48 10 -70 15 -22 5 -60 13 -85 16 -24 4
-47 8 -50 10 -4 2 -29 7 -56 11 -27 3 -52 8 -56 10 -3 2 -28 7 -55 9 -26 3
-70 10 -98 15 -27 5 -75 12 -105 15 -30 4 -66 8 -80 10 -25 4 -69 9 -165 20
-27 3 -66 7 -85 10 -82 11 -149 18 -287 29 -34 3 -81 8 -105 10 -24 2 -77 7
-118 11 -41 3 -95 8 -120 10 -25 2 -81 7 -125 10 -44 3 -111 7 -150 10 -193
13 -236 16 -315 20 -47 2 -133 7 -191 10 -58 3 -155 8 -215 10 -238 8 -525 17
-647 19 -70 2 -130 6 -133 9 -4 3 -14 2 -24 -3 -10 -5 -20 -7 -23 -3 -4 3
-1382 8 -3062 9 l-3056 4 6 -23z"/>
<path d="M2458 12365 c-1 -1 -34 -6 -72 -10 -75 -7 -197 -29 -261 -46 -22 -6
-44 -12 -50 -13 -128 -26 -378 -136 -550 -244 -390 -244 -701 -638 -845 -1072
-33 -100 -64 -219 -79 -310 -6 -36 -13 -81 -17 -100 -10 -61 -12 -402 -3 -470
20 -141 25 -174 43 -248 95 -387 277 -712 547 -981 330 -328 733 -524 1204
-586 98 -13 440 -14 495 -1 14 3 44 8 68 11 24 3 64 10 90 16 26 6 54 12 62
14 199 42 449 149 640 273 82 53 188 131 221 162 8 8 48 46 88 83 226 214 411
500 517 802 118 334 144 743 70 1100 -159 761 -757 1379 -1515 1564 -65 16
-143 32 -172 36 -30 4 -81 10 -114 15 -57 7 -359 12 -367 5z m382 -749 c212
-41 433 -140 598 -270 25 -20 187 -181 207 -206 34 -44 105 -148 105 -154 0
-4 10 -23 23 -44 40 -63 114 -263 132 -352 3 -14 8 -36 11 -50 3 -14 7 -101 9
-195 3 -141 1 -186 -16 -265 -105 -508 -448 -882 -940 -1023 -124 -36 -158
-40 -339 -41 -149 -1 -186 2 -285 20 -120 21 -348 121 -462 200 -86 60 -98 70
-178 149 -202 199 -326 433 -381 720 -10 50 -11 379 -1 423 4 17 10 47 13 64
9 58 71 232 107 306 68 137 144 241 257 353 71 69 192 169 206 169 3 0 19 9
34 20 39 28 158 86 223 109 187 67 268 79 482 76 88 -2 176 -6 195 -9z"/>
<path d="M23762 12349 c-210 -25 -413 -78 -582 -151 -105 -45 -339 -174 -360
-198 -3 -3 -18 -14 -35 -25 -70 -44 -252 -208 -340 -306 -144 -160 -288 -395
-373 -610 -41 -102 -96 -296 -102 -359 -1 -3 -5 -23 -10 -45 -24 -106 -34
-426 -18 -575 20 -177 69 -366 146 -560 17 -43 86 -182 117 -235 89 -153 212
-310 341 -437 81 -79 114 -108 197 -171 16 -12 34 -27 40 -32 30 -26 182 -117
272 -163 181 -91 337 -145 550 -188 27 -5 79 -13 160 -23 68 -9 420 -7 460 2
11 2 42 8 68 11 97 15 136 23 256 58 545 156 1007 539 1261 1047 90 179 159
385 189 566 5 33 13 76 16 95 13 75 13 406 0 505 -82 622 -408 1142 -925 1478
-232 150 -526 263 -790 302 -159 24 -400 30 -538 14z"/>
</g>
</svg>
