<?xml version="1.0" standalone="no"?>
<!DOCTYPE svg PUBLIC "-//W3C//DTD SVG 20010904//EN"
 "http://www.w3.org/TR/2001/REC-SVG-20010904/DTD/svg10.dtd">
<svg version="1.0" xmlns="http://www.w3.org/2000/svg"
 width="1912.000000pt" height="1912.000000pt" viewBox="0 0 1912.000000 1912.000000"
 preserveAspectRatio="xMidYMid meet">
<metadata>
Created by potrace 1.14, written by Peter Selinger 2001-2017
</metadata>
<g transform="translate(0.000000,1912.000000) scale(0.100000,-0.100000)"
fill="#000000" stroke="none">
<path d="M7374 16902 c-22 -15 -125 -83 -230 -152 -104 -69 -193 -128 -199
-133 -5 -4 -383 -256 -840 -559 -456 -303 -890 -594 -963 -647 -74 -53 -147
-105 -162 -116 -64 -45 -889 -642 -975 -705 -18 -14 -68 -50 -111 -80 -105
-75 -593 -440 -663 -496 -31 -25 -63 -51 -71 -57 -8 -7 -58 -46 -110 -87 -52
-41 -97 -77 -100 -80 -3 -3 -30 -25 -60 -50 -30 -25 -64 -52 -75 -62 -11 -9
-69 -58 -130 -108 -60 -51 -141 -120 -179 -153 -39 -34 -95 -84 -125 -111
-177 -156 -450 -416 -646 -616 -148 -151 -170 -175 -269 -285 -49 -55 -92
-102 -96 -105 -3 -3 -30 -34 -60 -70 -30 -35 -59 -70 -65 -76 -27 -31 -175
-213 -213 -263 -92 -119 -121 -159 -185 -252 -143 -209 -292 -477 -396 -714
-72 -162 -73 -165 -116 -285 -20 -58 -41 -114 -46 -125 -4 -11 -12 -36 -18
-55 -5 -19 -23 -79 -39 -132 -17 -54 -28 -98 -26 -98 3 0 0 -8 -5 -18 -9 -16
-55 -204 -66 -267 -2 -11 -6 -31 -10 -45 -3 -14 -8 -37 -10 -52 -2 -15 -9 -53
-14 -85 -6 -32 -13 -74 -16 -93 -3 -19 -7 -46 -10 -60 -2 -14 -7 -43 -9 -65
-10 -77 -15 -120 -21 -160 -6 -52 -17 -185 -31 -380 -6 -101 -7 -579 0 -705 6
-103 15 -231 21 -295 2 -22 7 -71 10 -110 3 -38 8 -77 10 -85 2 -8 7 -40 10
-70 3 -30 10 -82 15 -115 5 -33 12 -78 16 -100 3 -22 18 -105 34 -185 113
-572 293 -1096 549 -1600 168 -331 333 -604 530 -875 59 -82 262 -340 307
-391 11 -12 48 -54 84 -95 101 -116 424 -435 545 -539 61 -52 112 -97 115
-100 30 -34 432 -339 508 -385 9 -6 69 -44 133 -85 138 -90 128 -84 256 -159
56 -34 105 -61 108 -61 3 0 23 -11 45 -25 53 -33 311 -163 440 -220 58 -26
124 -56 148 -67 176 -79 663 -249 887 -308 66 -18 127 -34 135 -36 19 -5 137
-33 169 -40 12 -2 51 -11 85 -19 33 -8 75 -16 91 -19 17 -3 41 -8 55 -11 73
-15 371 -65 379 -63 3 1 24 -1 46 -5 22 -3 65 -9 95 -12 30 -4 66 -8 80 -10
14 -2 63 -6 110 -10 47 -4 96 -8 110 -10 170 -26 920 -26 1190 0 19 2 71 6
114 10 44 4 87 8 95 10 9 1 48 6 86 11 39 4 72 8 75 9 3 0 32 4 65 9 76 9 190
29 330 56 61 12 121 24 135 27 13 2 63 13 110 24 47 11 92 22 100 24 153 34
524 145 678 201 154 57 333 125 382 146 25 11 54 24 65 28 234 99 562 261 782
386 62 35 117 64 123 64 5 0 10 5 10 10 0 6 4 10 10 10 24 0 526 317 761 482
158 110 494 362 519 388 3 3 50 41 105 84 55 44 102 82 105 86 3 3 50 43 105
90 55 47 105 89 111 95 6 5 50 46 99 90 325 295 657 634 945 965 46 52 86 99
90 103 4 4 43 -36 86 -90 64 -78 864 -1075 911 -1133 15 -19 170 -211 182
-226 13 -16 358 -446 545 -679 88 -110 163 -202 166 -205 3 -3 39 -48 80 -100
41 -52 79 -100 85 -106 5 -6 22 -27 38 -46 135 -173 302 -374 313 -378 10 -4
3330 -5 3367 -1 11 1 -14 35 -114 155 -14 17 -187 231 -384 476 -197 245 -381
472 -409 506 -28 33 -62 75 -76 94 -14 18 -37 47 -51 64 -32 37 -626 773 -666
824 -16 19 -44 54 -63 77 -19 23 -116 142 -215 265 -99 123 -233 289 -298 369
-65 80 -131 161 -145 180 -15 19 -41 51 -57 70 -17 20 -47 56 -65 81 -19 25
-45 56 -57 70 -24 28 -260 320 -500 620 -86 107 -160 197 -163 200 -3 3 -33
39 -65 80 -32 41 -61 77 -64 80 -4 3 -33 39 -66 80 -33 41 -64 80 -70 87 -5 7
-15 18 -20 25 -89 111 -180 224 -185 228 -3 3 -47 58 -99 123 l-93 117 73 88
c91 107 114 135 160 186 19 23 138 163 264 311 126 149 232 272 235 275 3 3
25 30 50 60 25 30 53 64 63 75 11 11 38 42 60 69 23 27 100 117 170 200 71 83
150 176 176 206 27 30 61 71 77 90 16 19 85 100 153 180 68 80 142 168 166
195 51 61 162 191 191 225 12 14 81 95 154 180 72 85 151 178 174 205 24 28
124 145 222 260 183 215 221 260 239 279 6 6 39 47 75 91 35 44 67 82 71 85 7
6 66 75 124 144 22 27 45 54 51 60 6 6 110 128 233 271 122 143 232 271 244
285 54 63 164 190 206 239 25 30 51 59 56 65 6 6 48 56 95 111 110 129 132
155 148 171 11 12 -246 14 -1641 14 l-1654 0 -79 -92 c-43 -51 -84 -98 -89
-104 -6 -6 -31 -35 -56 -64 -24 -29 -55 -65 -69 -80 -14 -15 -36 -40 -49 -56
-14 -16 -47 -56 -75 -89 -28 -33 -54 -62 -57 -65 -3 -3 -65 -75 -138 -160 -73
-85 -145 -168 -159 -185 -43 -48 -527 -610 -630 -730 -85 -99 -125 -145 -196
-225 -36 -41 -270 -314 -281 -328 -5 -7 -19 -23 -31 -35 -11 -12 -63 -71 -115
-132 -51 -60 -98 -115 -104 -121 -5 -6 -30 -35 -55 -64 -25 -30 -55 -65 -67
-79 l-21 -26 -24 30 c-18 24 -128 155 -193 232 -5 7 -15 18 -20 25 -6 7 -53
65 -106 128 -52 63 -192 232 -309 375 -118 143 -219 265 -225 271 -5 6 -26 30
-45 54 -70 87 -274 335 -280 340 -3 3 -66 79 -140 170 -140 171 -168 205 -185
224 -6 6 -53 63 -105 126 -52 63 -102 124 -111 135 -10 11 -88 106 -174 210
-86 105 -171 208 -190 230 -18 22 -55 67 -82 100 -27 33 -114 139 -194 235
-155 187 -295 357 -508 615 -73 88 -142 171 -153 184 -11 13 -84 101 -161 195
-77 94 -152 185 -166 202 -14 17 -35 42 -46 55 -41 50 -211 255 -227 274 -9
11 -98 119 -198 240 -100 121 -192 231 -203 245 -12 14 -51 61 -87 105 -35 44
-72 89 -82 100 -25 29 -316 382 -358 435 -19 24 -61 75 -93 114 -32 39 -64 78
-70 86 -35 44 -143 176 -147 180 -4 3 -96 115 -205 250 -214 263 -215 265
-230 283 -66 80 -211 257 -460 563 -165 202 -311 381 -325 396 l-25 28 -41
-28z m-295 -3717 c86 -104 158 -192 161 -195 4 -4 117 -142 147 -180 22 -28
135 -165 156 -190 12 -14 38 -45 57 -70 19 -25 44 -56 57 -70 23 -26 543 -662
761 -930 69 -85 129 -157 132 -160 3 -3 41 -50 85 -105 44 -55 82 -102 85
-105 3 -3 25 -30 50 -60 25 -30 53 -64 62 -75 9 -11 53 -65 98 -120 45 -55 89
-109 98 -120 10 -11 57 -69 107 -130 164 -202 275 -337 349 -425 11 -14 57
-70 101 -125 44 -55 82 -102 85 -105 3 -3 127 -153 275 -335 148 -181 272
-332 275 -335 3 -3 33 -39 65 -80 33 -41 64 -80 70 -86 15 -17 41 -48 135
-164 46 -58 87 -107 90 -110 3 -3 32 -39 65 -80 33 -41 69 -86 81 -100 12 -14
68 -81 124 -150 56 -69 109 -134 119 -145 9 -12 35 -43 57 -70 21 -28 49 -61
61 -75 12 -14 67 -81 123 -150 107 -131 122 -150 241 -295 41 -49 114 -139
163 -198 l88 -108 -130 -127 c-192 -189 -374 -364 -502 -482 -62 -58 -125
-116 -140 -130 -14 -14 -62 -56 -105 -95 -43 -38 -86 -77 -95 -85 -67 -61
-119 -108 -215 -190 -106 -91 -137 -117 -285 -241 -216 -182 -641 -509 -846
-651 -45 -31 -103 -72 -129 -90 -26 -18 -54 -38 -63 -43 -10 -6 -51 -33 -92
-59 -222 -145 -516 -299 -745 -390 -38 -15 -77 -32 -86 -36 -50 -26 -405 -139
-519 -165 -56 -13 -200 -45 -225 -49 -16 -3 -41 -8 -55 -11 -13 -2 -42 -7 -65
-10 -22 -3 -69 -11 -105 -16 -36 -6 -85 -13 -110 -15 -25 -2 -67 -7 -95 -9
-221 -23 -683 -23 -815 -1 -14 3 -47 7 -75 11 -240 29 -532 103 -805 205 -289
107 -623 280 -910 469 -63 41 -117 78 -120 81 -3 4 -48 38 -100 76 -52 39
-102 77 -110 85 -9 8 -40 34 -70 59 -144 118 -428 399 -540 535 -41 50 -77 92
-80 95 -4 3 -33 41 -66 85 -32 44 -61 82 -64 85 -38 38 -234 358 -321 525
-189 364 -347 821 -393 1140 -4 23 -8 50 -10 60 -40 213 -51 681 -22 865 3 14
7 52 11 85 14 130 80 404 135 559 95 272 219 514 399 776 35 52 67 97 71 100
3 3 31 38 63 79 138 180 466 514 791 806 248 223 523 451 906 748 135 105 518
384 728 530 28 21 73 52 100 70 26 18 112 78 192 131 80 54 172 119 205 143
123 91 263 189 448 313 l189 128 46 -57 c25 -31 116 -141 201 -246z"/>
</g>
</svg>
